<svg width="65" height="61" viewBox="0 0 65 61" fill="none" xmlns="http://www.w3.org/2000/svg">
<g clip-path="url(#clip0_3001_209)">
<path d="M52.6191 12.8798C49.5391 20.5598 41.8191 30.9998 35.3591 36.1798L31.4191 39.3398C30.9191 39.6998 30.4191 40.0198 29.8591 40.2398C29.8591 39.8798 29.8391 39.4798 29.7791 39.0998C29.5591 37.4198 28.7991 35.8598 27.4591 34.5198C26.0991 33.1598 24.4391 32.3598 22.7391 32.1398C22.3391 32.1198 21.9391 32.0798 21.5391 32.1198C21.7591 31.4998 22.0991 30.9198 22.5191 30.4398L25.6391 26.4998C30.7991 20.0398 41.2791 12.2798 48.9391 9.21975C50.1191 8.77975 51.2591 9.09975 51.9791 9.83975C52.7391 10.5798 53.0991 11.7198 52.6191 12.8798Z" stroke="#FAFAFA" stroke-width="2.5" stroke-linecap="round" stroke-linejoin="round"/>
<path d="M29.8586 40.2396C29.8586 42.4396 29.0186 44.5396 27.4386 46.1396C26.2186 47.3596 24.5586 48.1996 22.5786 48.4596L17.6586 48.9996C14.9786 49.2996 12.6786 47.0196 12.9986 44.2996L13.5386 39.3796C14.0186 34.9996 17.6786 32.1996 21.5586 32.1196C21.9586 32.0996 22.3786 32.1196 22.7586 32.1396C24.4586 32.3596 26.1186 33.1396 27.4786 34.5196C28.8186 35.8596 29.5786 37.4196 29.7986 39.0996C29.8186 39.4796 29.8586 39.8596 29.8586 40.2396Z" stroke="#FAFAFA" stroke-width="2.5" stroke-linecap="round" stroke-linejoin="round"/>
<path d="M37.4795 33.9405C37.4795 28.7205 33.2395 24.4805 28.0195 24.4805" stroke="#FAFAFA" stroke-width="2.5" stroke-linecap="round" stroke-linejoin="round"/>
</g>
<defs>
<clipPath id="clip0_3001_209">
<rect width="65" height="61" fill="white"/>
</clipPath>
</defs>
</svg>
