<svg width="65" height="61" viewBox="0 0 65 61" fill="none" xmlns="http://www.w3.org/2000/svg">
<g clip-path="url(#clip0_3001_400)">
<path d="M45 19.9998V39.9998C45 41.2398 44.96 42.3398 44.82 43.3198C44.24 48.5798 41.76 49.9998 35 49.9998H31C24.24 49.9998 21.76 48.5798 21.18 43.3198C21.04 42.3398 21 41.2398 21 39.9998V19.9998C21 18.7598 21.04 17.6598 21.18 16.6798C21.76 11.4198 24.24 9.99976 31 9.99976H35C41.76 9.99976 44.24 11.4198 44.82 16.6798C44.96 17.6598 45 18.7598 45 19.9998Z" stroke="white" stroke-width="2.47948" stroke-linecap="round" stroke-linejoin="round"/>
<path d="M21 39.9992C21 41.2392 21.04 42.3392 21.18 43.3192C20.9 43.3392 20.64 43.3392 20.34 43.3392H19.66C14.34 43.3392 13 41.9992 13 36.6592V23.3392C13 17.9992 14.34 16.6592 19.66 16.6592H20.34C20.64 16.6592 20.9 16.6592 21.18 16.6792C21.04 17.6592 21 18.7592 21 19.9992V39.9992Z" stroke="white" stroke-width="2.47948" stroke-linecap="round" stroke-linejoin="round"/>
<path d="M52.9984 23.3392V36.6592C52.9984 41.9992 51.6584 43.3392 46.3384 43.3392H45.6584C45.3584 43.3392 45.0984 43.3392 44.8184 43.3192C44.9584 42.3392 44.9984 41.2392 44.9984 39.9992V19.9992C44.9984 18.7592 44.9584 17.6592 44.8184 16.6792C45.0984 16.6592 45.3584 16.6592 45.6584 16.6592H46.3384C51.6584 16.6592 52.9984 17.9992 52.9984 23.3392Z" stroke="white" stroke-width="2.47948" stroke-linecap="round" stroke-linejoin="round"/>
</g>
<defs>
<clipPath id="clip0_3001_400">
<rect width="65" height="61" fill="white"/>
</clipPath>
</defs>
</svg>
